<?xml version="1.0" standalone="no"?>
<!DOCTYPE svg PUBLIC "-//W3C//DTD SVG 20010904//EN"
 "http://www.w3.org/TR/2001/REC-SVG-20010904/DTD/svg10.dtd">
<svg version="1.0" xmlns="http://www.w3.org/2000/svg"
 width="400.000000pt" height="400.000000pt" viewBox="0 0 400.000000 400.000000"
 preserveAspectRatio="xMidYMid meet">
<metadata>
Created by potrace 1.14, written by Peter Selinger 2001-2017
</metadata>
<g transform="translate(0.000000,400.000000) scale(0.100000,-0.100000)"
fill="#000000" stroke="none">
<path d="M460 3365 l0 -175 173 2 172 3 3 173 2 172 -175 0 -175 0 0 -175z"/>
<path d="M3232 3368 l3 -173 175 0 175 0 3 173 2 172 -180 0 -180 0 2 -172z"/>
<path d="M1150 1635 l0 -175 175 0 175 0 0 175 0 175 -175 0 -175 0 0 -175z"/>
<path d="M2540 1635 l0 -175 175 0 175 0 0 175 0 175 -175 0 -175 0 0 -175z"/>
<path d="M1845 757 c-3 -7 -4 -87 -3 -177 l3 -165 175 0 175 0 0 175 0 175
-173 3 c-135 2 -174 0 -177 -11z"/>
</g>
</svg>
